# xmcd CD database file
#
# Track frame offsets:
#	150
#	10052
#	25441
#	39563
#	52485
#	64371
#	76891
#	91554
#	104303
#	117886
#	131909
#	144359
#	156121
#	169693
#	182138
#
# Disc length: 2619 seconds
#
# Revision: 0
# Processed by: cddbd v1.5.2PL0 Copyright (c) Steve Scherf et al.
# Submitted via: CDex 1.51
#
DISCID=c80a390f
DTITLE=Oliver River Gess Band - ORGB cd 1
DYEAR=2010
DGENRE=Jazz
TTITLE0=New wang wang blues
TTITLE1=Black and tan fantasy
TTITLE2=Cornet chop suey
TTITLE3=Jelly Roll blues
TTITLE4=Them there eyes
TTITLE5=Tickle toe
TTITLE6=Singin' the blues
TTITLE7=Spreading rhythm around
TTITLE8=Kiss me sweet
TTITLE9=It don't mean a thing
TTITLE10=Buddy's habit
TTITLE11=Bimbo
TTITLE12=After you've gone
TTITLE13=Cake walking babies from home
TTITLE14=The stampede
EXTD=YEAR: 2010
EXTT0=
EXTT1=
EXTT2=
EXTT3=
EXTT4=
EXTT5=
EXTT6=
EXTT7=
EXTT8=
EXTT9=
EXTT10=
EXTT11=
EXTT12=
EXTT13=
EXTT14=
PLAYORDER=
